<svg xmlns="http://www.w3.org/2000/svg" width="48" height="48" viewBox="0 0 48 48" fill="none" role="img" aria-label="今日销售额">
<defs>
  <linearGradient id="xsy-green" x1="0%" y1="0%" x2="100%" y2="100%"><stop offset="0%" stop-color="#43E3A6"/><stop offset="100%" stop-color="#08A966"/></linearGradient>
  <linearGradient id="xsy-blue" x1="0%" y1="0%" x2="100%" y2="100%"><stop offset="0%" stop-color="#69C6FF"/><stop offset="100%" stop-color="#2585EE"/></linearGradient>
  <linearGradient id="xsy-orange" x1="0%" y1="0%" x2="100%" y2="100%"><stop offset="0%" stop-color="#FFD27E"/><stop offset="100%" stop-color="#FB9029"/></linearGradient>
  <linearGradient id="xsy-purple" x1="0%" y1="0%" x2="100%" y2="100%"><stop offset="0%" stop-color="#CAA8FF"/><stop offset="100%" stop-color="#8761F2"/></linearGradient>
  <linearGradient id="xsy-red" x1="0%" y1="0%" x2="100%" y2="100%"><stop offset="0%" stop-color="#FF9BA0"/><stop offset="100%" stop-color="#F54E62"/></linearGradient>
  <linearGradient id="xsy-teal" x1="0%" y1="0%" x2="100%" y2="100%"><stop offset="0%" stop-color="#7BE5DA"/><stop offset="100%" stop-color="#10AEA6"/></linearGradient>
  <linearGradient id="xsy-gold" x1="0%" y1="0%" x2="100%" y2="100%"><stop offset="0%" stop-color="#FFE89E"/><stop offset="100%" stop-color="#F4B52F"/></linearGradient>
  <filter id="xsy-shadow" x="-25%" y="-25%" width="150%" height="165%"><feDropShadow dx="0" dy="1.2" stdDeviation="1.1" flood-color="#22374D" flood-opacity="0.15"/></filter>
</defs>
<g stroke-linejoin="round" stroke-linecap="round">
<rect x="7.5" y="13.5" width="30" height="27" rx="7" fill="url(#xsy-green)" filter="url(#xsy-shadow)"/>
<path d="M11.5 15v-3.7A3.8 3.8 0 0 1 15.3 7.5h15.8a3.3 3.3 0 0 1 3.3 3.3V14" fill="#CAFAE3" stroke="#0DAD71" stroke-width="1.6"/>
<path d="M13 21.8h10" stroke="#EDFFF7" stroke-width="2.4" opacity=".78"/>
<rect x="24" y="24.5" width="16.5" height="10.5" rx="4.8" fill="#DAFFEE" stroke="#08A966" stroke-width="1.6"/>
<circle cx="33" cy="29.7" r="2.4" fill="#24BB7E"/>
<path d="M13.5 35.2h8" stroke="#D6FFEC" stroke-width="2" stroke-linecap="round"/>
</g>
</svg>
