<svg xmlns="http://www.w3.org/2000/svg" width="48" height="48" viewBox="0 0 48 48" fill="none" role="img" aria-label="更新日志">
<defs>
  <linearGradient id="xsy-green" x1="0%" y1="0%" x2="100%" y2="100%"><stop offset="0%" stop-color="#43E3A6"/><stop offset="100%" stop-color="#08A966"/></linearGradient>
  <linearGradient id="xsy-blue" x1="0%" y1="0%" x2="100%" y2="100%"><stop offset="0%" stop-color="#69C6FF"/><stop offset="100%" stop-color="#2585EE"/></linearGradient>
  <linearGradient id="xsy-orange" x1="0%" y1="0%" x2="100%" y2="100%"><stop offset="0%" stop-color="#FFD27E"/><stop offset="100%" stop-color="#FB9029"/></linearGradient>
  <linearGradient id="xsy-purple" x1="0%" y1="0%" x2="100%" y2="100%"><stop offset="0%" stop-color="#CAA8FF"/><stop offset="100%" stop-color="#8761F2"/></linearGradient>
  <linearGradient id="xsy-red" x1="0%" y1="0%" x2="100%" y2="100%"><stop offset="0%" stop-color="#FF9BA0"/><stop offset="100%" stop-color="#F54E62"/></linearGradient>
  <linearGradient id="xsy-teal" x1="0%" y1="0%" x2="100%" y2="100%"><stop offset="0%" stop-color="#7BE5DA"/><stop offset="100%" stop-color="#10AEA6"/></linearGradient>
  <linearGradient id="xsy-gold" x1="0%" y1="0%" x2="100%" y2="100%"><stop offset="0%" stop-color="#FFE89E"/><stop offset="100%" stop-color="#F4B52F"/></linearGradient>
  <filter id="xsy-shadow" x="-25%" y="-25%" width="150%" height="165%"><feDropShadow dx="0" dy="1.2" stdDeviation="1.1" flood-color="#22374D" flood-opacity="0.15"/></filter>
</defs>
<g stroke-linejoin="round" stroke-linecap="round">
<path d="M12 7h17l7 7v25a3.5 3.5 0 0 1-3.5 3.5H12a3.5 3.5 0 0 1-3.5-3.5V10.5A3.5 3.5 0 0 1 12 7z" fill="url(#xsy-blue)" filter="url(#xsy-shadow)"/>
<path d="M29 7v7h7" fill="#C4EAFF" stroke="#C4EAFF" stroke-width="1.2"/>
<path d="M15 19h14M15 25h10M15 31h7" stroke="#F5FCFF" stroke-width="2.2" stroke-linecap="round"/>
<circle cx="33.8" cy="33.7" r="8.3" fill="#DBFFF0" stroke="#22B77F" stroke-width="1.4"/>
<path d="M37.3 31.2a4 4 0 0 0-6.9-.5m-.3-2.7v3.2h3.1M30.4 36a4 4 0 0 0 6.8-.5m.3 2.7V35h-3.1" stroke="#12A975" stroke-width="1.6" fill="none" stroke-linecap="round" stroke-linejoin="round"/>
</g>
</svg>
