<svg xmlns="http://www.w3.org/2000/svg" width="48" height="48" viewBox="0 0 48 48" fill="none" role="img" aria-label="库存健康">
<defs>
  <linearGradient id="xsy-green" x1="0%" y1="0%" x2="100%" y2="100%"><stop offset="0%" stop-color="#43E3A6"/><stop offset="100%" stop-color="#08A966"/></linearGradient>
  <linearGradient id="xsy-blue" x1="0%" y1="0%" x2="100%" y2="100%"><stop offset="0%" stop-color="#69C6FF"/><stop offset="100%" stop-color="#2585EE"/></linearGradient>
  <linearGradient id="xsy-orange" x1="0%" y1="0%" x2="100%" y2="100%"><stop offset="0%" stop-color="#FFD27E"/><stop offset="100%" stop-color="#FB9029"/></linearGradient>
  <linearGradient id="xsy-purple" x1="0%" y1="0%" x2="100%" y2="100%"><stop offset="0%" stop-color="#CAA8FF"/><stop offset="100%" stop-color="#8761F2"/></linearGradient>
  <linearGradient id="xsy-red" x1="0%" y1="0%" x2="100%" y2="100%"><stop offset="0%" stop-color="#FF9BA0"/><stop offset="100%" stop-color="#F54E62"/></linearGradient>
  <linearGradient id="xsy-teal" x1="0%" y1="0%" x2="100%" y2="100%"><stop offset="0%" stop-color="#7BE5DA"/><stop offset="100%" stop-color="#10AEA6"/></linearGradient>
  <linearGradient id="xsy-gold" x1="0%" y1="0%" x2="100%" y2="100%"><stop offset="0%" stop-color="#FFE89E"/><stop offset="100%" stop-color="#F4B52F"/></linearGradient>
  <filter id="xsy-shadow" x="-25%" y="-25%" width="150%" height="165%"><feDropShadow dx="0" dy="1.2" stdDeviation="1.1" flood-color="#22374D" flood-opacity="0.15"/></filter>
</defs>
<g stroke-linejoin="round" stroke-linecap="round">
<path d="M24 5 40 11v12c0 10-6.5 16.5-16 21-9.5-4.5-16-11-16-21V11z" fill="url(#xsy-teal)" filter="url(#xsy-shadow)"/>
<path d="M24 10 35 14v9.5c0 6.6-4 11.3-11 15-7-3.7-11-8.4-11-15V14z" fill="#CFF8EF" opacity=".55"/>
<path d="M13.8 26h6l3-7.1 4.1 12 2.8-5h4.7" stroke="#FFFFFF" stroke-width="2.6" fill="none" stroke-linecap="round" stroke-linejoin="round"/>
</g>
</svg>
