<svg xmlns="http://www.w3.org/2000/svg" width="48" height="48" viewBox="0 0 48 48" fill="none" role="img" aria-label="草稿配送线路">
<defs>
  <linearGradient id="xsy-green" x1="0%" y1="0%" x2="100%" y2="100%"><stop offset="0%" stop-color="#43E3A6"/><stop offset="100%" stop-color="#08A966"/></linearGradient>
  <linearGradient id="xsy-blue" x1="0%" y1="0%" x2="100%" y2="100%"><stop offset="0%" stop-color="#69C6FF"/><stop offset="100%" stop-color="#2585EE"/></linearGradient>
  <linearGradient id="xsy-orange" x1="0%" y1="0%" x2="100%" y2="100%"><stop offset="0%" stop-color="#FFD27E"/><stop offset="100%" stop-color="#FB9029"/></linearGradient>
  <linearGradient id="xsy-purple" x1="0%" y1="0%" x2="100%" y2="100%"><stop offset="0%" stop-color="#CAA8FF"/><stop offset="100%" stop-color="#8761F2"/></linearGradient>
  <linearGradient id="xsy-red" x1="0%" y1="0%" x2="100%" y2="100%"><stop offset="0%" stop-color="#FF9BA0"/><stop offset="100%" stop-color="#F54E62"/></linearGradient>
  <linearGradient id="xsy-teal" x1="0%" y1="0%" x2="100%" y2="100%"><stop offset="0%" stop-color="#7BE5DA"/><stop offset="100%" stop-color="#10AEA6"/></linearGradient>
  <linearGradient id="xsy-gold" x1="0%" y1="0%" x2="100%" y2="100%"><stop offset="0%" stop-color="#FFE89E"/><stop offset="100%" stop-color="#F4B52F"/></linearGradient>
  <filter id="xsy-shadow" x="-25%" y="-25%" width="150%" height="165%"><feDropShadow dx="0" dy="1.2" stdDeviation="1.1" flood-color="#22374D" flood-opacity="0.15"/></filter>
</defs>
<g stroke-linejoin="round" stroke-linecap="round">
<rect x="6" y="16" width="24" height="18" rx="4" fill="url(#xsy-teal)" filter="url(#xsy-shadow)"/>
<path d="M30 21h6l6 7v6H30z" fill="#68D9C9" stroke="#169F91" stroke-width="1.5"/>
<path d="M33.3 23.6h2.1l4 4.5h-6.1z" fill="#E8FFFB"/>
<circle cx="15" cy="35" r="4" fill="#176F69" stroke="#D0FFF6" stroke-width="2"/>
<circle cx="36" cy="35" r="4" fill="#176F69" stroke="#D0FFF6" stroke-width="2"/>
<path d="M10.4 12.3h7M14.5 8.7h10" stroke="#2BC9AD" stroke-width="2.5" stroke-linecap="round"/>
<path d="M34 10c0 3 4 7 4 7s4-4 4-7a4 4 0 0 0-8 0z" fill="#D5FCED" stroke="#17A58B" stroke-width="1.4"/>
<circle cx="38" cy="10" r="1.35" fill="#0EAB87"/>
</g>
</svg>
