<svg xmlns="http://www.w3.org/2000/svg" xmlns:xlink="http://www.w3.org/1999/xlink">
<defs>
  <linearGradient id="xsy-green" x1="0%" y1="0%" x2="100%" y2="100%"><stop offset="0%" stop-color="#43E3A6"/><stop offset="100%" stop-color="#08A966"/></linearGradient>
  <linearGradient id="xsy-blue" x1="0%" y1="0%" x2="100%" y2="100%"><stop offset="0%" stop-color="#69C6FF"/><stop offset="100%" stop-color="#2585EE"/></linearGradient>
  <linearGradient id="xsy-orange" x1="0%" y1="0%" x2="100%" y2="100%"><stop offset="0%" stop-color="#FFD27E"/><stop offset="100%" stop-color="#FB9029"/></linearGradient>
  <linearGradient id="xsy-purple" x1="0%" y1="0%" x2="100%" y2="100%"><stop offset="0%" stop-color="#CAA8FF"/><stop offset="100%" stop-color="#8761F2"/></linearGradient>
  <linearGradient id="xsy-red" x1="0%" y1="0%" x2="100%" y2="100%"><stop offset="0%" stop-color="#FF9BA0"/><stop offset="100%" stop-color="#F54E62"/></linearGradient>
  <linearGradient id="xsy-teal" x1="0%" y1="0%" x2="100%" y2="100%"><stop offset="0%" stop-color="#7BE5DA"/><stop offset="100%" stop-color="#10AEA6"/></linearGradient>
  <linearGradient id="xsy-gold" x1="0%" y1="0%" x2="100%" y2="100%"><stop offset="0%" stop-color="#FFE89E"/><stop offset="100%" stop-color="#F4B52F"/></linearGradient>
  <filter id="xsy-shadow" x="-25%" y="-25%" width="150%" height="165%"><feDropShadow dx="0" dy="1.2" stdDeviation="1.1" flood-color="#22374D" flood-opacity="0.15"/></filter>
</defs>
<symbol id="icon-kpi-sales-amount" viewBox="0 0 48 48" aria-label="今日销售额"><g stroke-linejoin="round" stroke-linecap="round">
<rect x="7.5" y="13.5" width="30" height="27" rx="7" fill="url(#xsy-green)" filter="url(#xsy-shadow)"/>
<path d="M11.5 15v-3.7A3.8 3.8 0 0 1 15.3 7.5h15.8a3.3 3.3 0 0 1 3.3 3.3V14" fill="#CAFAE3" stroke="#0DAD71" stroke-width="1.6"/>
<path d="M13 21.8h10" stroke="#EDFFF7" stroke-width="2.4" opacity=".78"/>
<rect x="24" y="24.5" width="16.5" height="10.5" rx="4.8" fill="#DAFFEE" stroke="#08A966" stroke-width="1.6"/>
<circle cx="33" cy="29.7" r="2.4" fill="#24BB7E"/>
<path d="M13.5 35.2h8" stroke="#D6FFEC" stroke-width="2" stroke-linecap="round"/>
</g></symbol>
<symbol id="icon-kpi-order-count" viewBox="0 0 48 48" aria-label="今日订单"><g stroke-linejoin="round" stroke-linecap="round">
<rect x="11" y="6.5" width="26" height="35" rx="6.2" fill="url(#xsy-blue)" filter="url(#xsy-shadow)"/>
<path d="M28.7 6.5v7.2a3 3 0 0 0 3 3H37" fill="#B6E8FF" opacity=".75"/>
<path d="M16.6 18.5H29.5 M16.6 24H26.8 M16.6 29.4H24" stroke="#F5FCFF" stroke-width="2.4" stroke-linecap="round"/>
<circle cx="33.5" cy="34.2" r="8.5" fill="#E9FAFF" stroke="#2789ED" stroke-width="1.5"/>
<path d="m29.3 34.2 2.7 2.6 5-5.4" stroke="#1689EA" stroke-width="2.7" fill="none" stroke-linecap="round" stroke-linejoin="round"/>
</g></symbol>
<symbol id="icon-kpi-purchase-amount" viewBox="0 0 48 48" aria-label="今日采购额"><g stroke-linejoin="round" stroke-linecap="round">
<path d="M7 12h5l3.3 17.7a3 3 0 0 0 3 2.4h17.5" fill="none" stroke="#E78723" stroke-width="2.8" stroke-linecap="round" stroke-linejoin="round"/>
<path d="M14 15.5h26l-3.5 12H17.2z" fill="url(#xsy-orange)" filter="url(#xsy-shadow)" stroke="#E78723" stroke-width=".9"/>
<path d="M21.3 18v6.5M29.1 18v6.5M36 18.2l-1.7 6.3" stroke="#FFEDD1" stroke-width="2.2" stroke-linecap="round"/>
<circle cx="20.5" cy="36.4" r="2.5" fill="#D97916"/>
<circle cx="34" cy="36.4" r="2.5" fill="#D97916"/>
<circle cx="35" cy="11" r="6.5" fill="#FFF2C7" stroke="#ECAE2D" stroke-width="1.3"/>
<path d="m32.7 9 2.3 2.9L37.3 9M33 12.2h4M35 12.2v2.1" stroke="#E69D22" stroke-width="1.3" fill="none" stroke-linecap="round"/>
</g></symbol>
<symbol id="icon-kpi-receipt-count" viewBox="0 0 48 48" aria-label="今日收货"><g stroke-linejoin="round" stroke-linecap="round">
<path d="M8 17.3 23.8 9l16 8.3v16.4l-16 8-15.8-8z" fill="url(#xsy-purple)" filter="url(#xsy-shadow)"/>
<path d="m8 17.5 15.8 8.2 16-8.2M23.8 25.7v16" fill="none" stroke="#E9DCFF" stroke-width="1.8"/>
<path d="m16.2 13.2 15.7 8.4v5.7" stroke="#F8F2FF" stroke-width="3.2" fill="none"/>
<circle cx="36" cy="12.5" r="8.3" fill="#F0E9FF" stroke="#986DF5" stroke-width="1.4"/>
<path d="M36 8.6v7.3m-3-3 3 3 3-3" stroke="#8B61EA" stroke-width="2.1" fill="none" stroke-linecap="round" stroke-linejoin="round"/>
</g></symbol>
<symbol id="icon-kpi-inventory-warning" viewBox="0 0 48 48" aria-label="库存预警"><g stroke-linejoin="round" stroke-linecap="round">
<path d="M22 8.3c1.1-2 3.9-2 5 0l16 27.5c1.2 2.1-.3 4.6-2.8 4.6H8.8c-2.5 0-4-2.5-2.8-4.6z" fill="url(#xsy-red)" stroke="#EE5364" stroke-width="1.3" filter="url(#xsy-shadow)"/>
<path d="M24.5 17.2v10.5" stroke="#FFF8F8" stroke-width="4.4" stroke-linecap="round"/>
<circle cx="24.5" cy="33" r="2.5" fill="#FFF8F8"/>
<path d="M36.7 36.5h3" stroke="#FFD9DA" stroke-width="1.5" opacity=".7"/>
</g></symbol>
<symbol id="icon-todo-inventory-error" viewBox="0 0 48 48" aria-label="库存异常"><g stroke-linejoin="round" stroke-linecap="round">
<path d="M9 16.8 22.3 9l13.1 7.8v14.5L22.3 39 9 31.3z" fill="url(#xsy-red)" filter="url(#xsy-shadow)"/>
<path d="m9 16.8 13.3 7.7 13.1-7.7M22.3 24.5V39" fill="none" stroke="#FFE5E8" stroke-width="1.8"/>
<path d="m15.4 13 13.1 7.7v4.5" stroke="#FFE9ED" stroke-width="3.2" fill="none"/>
<circle cx="35.3" cy="34.3" r="8" fill="#FFF1F1" stroke="#F75C68" stroke-width="1.6"/>
<path d="m32.5 31.5 5.6 5.6m0-5.6-5.6 5.6" stroke="#EF5865" stroke-width="2.4" stroke-linecap="round"/>
</g></symbol>
<symbol id="icon-todo-pending-receipt" viewBox="0 0 48 48" aria-label="待确认入库"><g stroke-linejoin="round" stroke-linecap="round">
<rect x="8" y="10" width="23" height="30" rx="5" fill="url(#xsy-orange)" filter="url(#xsy-shadow)"/>
<path d="M14.2 16.2h11 M14.2 21.2h8" stroke="#FFF8E9" stroke-width="2.3" stroke-linecap="round"/>
<path d="m26 28 9.4-5.5L44 28v9.5L35.4 43l-9.4-5.5z" fill="#FFE2AD" stroke="#E49B37" stroke-width="1.5"/>
<path d="m26 28 9.4 5.3L44 28m-8.6 5.3V43" stroke="#DA963C" stroke-width="1.4" fill="none"/>
<path d="M35.5 15.3v9m-3-3 3 3 3-3" stroke="#D78325" stroke-width="2.5" fill="none" stroke-linecap="round" stroke-linejoin="round"/>
</g></symbol>
<symbol id="icon-todo-pending-approval" viewBox="0 0 48 48" aria-label="待审批报损报溢"><g stroke-linejoin="round" stroke-linecap="round">
<rect x="10" y="7.5" width="27" height="34" rx="6" fill="url(#xsy-blue)" filter="url(#xsy-shadow)"/>
<path d="M16.5 16h13M16.5 22h12M16.5 28h8" stroke="#EBF8FF" stroke-width="2.3" stroke-linecap="round"/>
<circle cx="33" cy="34.6" r="8.8" fill="#FEF4D8" stroke="#EEAF3F" stroke-width="1.5"/>
<path d="m29.1 34.6 2.6 2.6 5.3-5.6" stroke="#C98A18" stroke-width="2.8" fill="none" stroke-linecap="round" stroke-linejoin="round"/>
</g></symbol>
<symbol id="icon-todo-draft-delivery" viewBox="0 0 48 48" aria-label="草稿配送线路"><g stroke-linejoin="round" stroke-linecap="round">
<rect x="6" y="16" width="24" height="18" rx="4" fill="url(#xsy-teal)" filter="url(#xsy-shadow)"/>
<path d="M30 21h6l6 7v6H30z" fill="#68D9C9" stroke="#169F91" stroke-width="1.5"/>
<path d="M33.3 23.6h2.1l4 4.5h-6.1z" fill="#E8FFFB"/>
<circle cx="15" cy="35" r="4" fill="#176F69" stroke="#D0FFF6" stroke-width="2"/>
<circle cx="36" cy="35" r="4" fill="#176F69" stroke="#D0FFF6" stroke-width="2"/>
<path d="M10.4 12.3h7M14.5 8.7h10" stroke="#2BC9AD" stroke-width="2.5" stroke-linecap="round"/>
<path d="M34 10c0 3 4 7 4 7s4-4 4-7a4 4 0 0 0-8 0z" fill="#D5FCED" stroke="#17A58B" stroke-width="1.4"/>
<circle cx="38" cy="10" r="1.35" fill="#0EAB87"/>
</g></symbol>
<symbol id="icon-section-business-trend" viewBox="0 0 48 48" aria-label="经营趋势"><g stroke-linejoin="round" stroke-linecap="round">
<rect x="7" y="8" width="34" height="32" rx="6" fill="#E2F9EF" stroke="#ACEDD1" stroke-width="1.4"/>
<path d="M13 33V26M21 33V22M29 33v-9M36 33V17" stroke="url(#xsy-blue)" stroke-width="4.8" opacity=".7" stroke-linecap="round"/>
<path d="m12 24 9-8 9 3 7-9" stroke="#12B77D" stroke-width="2.8" fill="none" stroke-linecap="round" stroke-linejoin="round"/>
<circle cx="12" cy="24" r="2" fill="#0DAD73"/><circle cx="21" cy="16" r="2" fill="#0DAD73"/><circle cx="30" cy="19" r="2" fill="#0DAD73"/><circle cx="37" cy="10" r="2" fill="#0DAD73"/>
</g></symbol>
<symbol id="icon-section-business-todo" viewBox="0 0 48 48" aria-label="业务待办"><g stroke-linejoin="round" stroke-linecap="round">
<rect x="11" y="9.5" width="29" height="32" rx="5.4" fill="url(#xsy-purple)" filter="url(#xsy-shadow)"/>
<rect x="19" y="6" width="13" height="8" rx="3" fill="#E9DFFF" stroke="#9B7DEE" stroke-width="1.4"/>
<path d="m16.3 22 2.3 2.3 4-4.5M26 22h8M16.3 32 2.3 2.3 4-4.5M26 32h8" stroke="#FFFFFF" stroke-width="2.2" fill="none" stroke-linecap="round" stroke-linejoin="round"/>
</g></symbol>
<symbol id="icon-section-customer-ranking" viewBox="0 0 48 48" aria-label="客户销售排行"><g stroke-linejoin="round" stroke-linecap="round">
<circle cx="19.5" cy="15" r="6" fill="url(#xsy-green)"/>
<path d="M6.5 35c0-7 5.8-12 13-12s13 5 13 12v2H6.5z" fill="#50D6A2" stroke="#0FAE78" stroke-width="1.3"/>
<circle cx="33.2" cy="18" r="4.7" fill="#95EACE"/>
<path d="M31.4 27.5c5.8-1.4 11.5 2 11.5 8v1.5h-7.5" fill="#B7F7DE"/>
<path d="m27 5.8 3.4 3 4.7-1.2-1.8 5.1h-9l-1.9-5.1z" fill="url(#xsy-gold)" stroke="#E9B34B" stroke-width="1"/>
</g></symbol>
<symbol id="icon-section-product-ranking" viewBox="0 0 48 48" aria-label="商品销售排行"><g stroke-linejoin="round" stroke-linecap="round">
<rect x="8" y="19" width="32" height="21" rx="4" fill="url(#xsy-orange)" filter="url(#xsy-shadow)"/>
<path d="M8 26h32M18 26v14M30 26v14" stroke="#FFE7C1" stroke-width="2.2"/>
<circle cx="23" cy="16.5" r="6.6" fill="#FF745D" stroke="#DF584C" stroke-width="1.3"/>
<path d="M23 12c.2-4 2.6-6 6-6-1 4.3-2.7 6-6 6" fill="url(#xsy-green)"/>
<path d="M16 11c-3-3-6-1-6 3 0 2 1.6 4 3.2 5" fill="#63D596"/>
<path d="m34 7 1.6 2.5 3-1-1.1 3.7h-6.6l-1.1-3.7 3 1z" fill="url(#xsy-gold)"/>
</g></symbol>
<symbol id="icon-section-inventory-health" viewBox="0 0 48 48" aria-label="库存健康"><g stroke-linejoin="round" stroke-linecap="round">
<path d="M24 5 40 11v12c0 10-6.5 16.5-16 21-9.5-4.5-16-11-16-21V11z" fill="url(#xsy-teal)" filter="url(#xsy-shadow)"/>
<path d="M24 10 35 14v9.5c0 6.6-4 11.3-11 15-7-3.7-11-8.4-11-15V14z" fill="#CFF8EF" opacity=".55"/>
<path d="M13.8 26h6l3-7.1 4.1 12 2.8-5h4.7" stroke="#FFFFFF" stroke-width="2.6" fill="none" stroke-linecap="round" stroke-linejoin="round"/>
</g></symbol>
<symbol id="icon-section-notice" viewBox="0 0 48 48" aria-label="通知公告"><g stroke-linejoin="round" stroke-linecap="round">
<path d="M9 20h9L36 9v26L18 28H9z" fill="url(#xsy-teal)" filter="url(#xsy-shadow)"/>
<path d="m18 20 18-11v26L18 28" fill="#87E7D7" opacity=".62"/>
<path d="M13 29.3 16 40h7l-4-11.5" fill="#16AD9D" stroke="#168F87" stroke-width="1.4"/>
<path d="M39 15.4 42.5 12M40.3 23h4M39 30.6l3.5 3.4" stroke="#0B9C8F" stroke-width="2.5" stroke-linecap="round"/>
</g></symbol>
<symbol id="icon-section-changelog" viewBox="0 0 48 48" aria-label="更新日志"><g stroke-linejoin="round" stroke-linecap="round">
<path d="M12 7h17l7 7v25a3.5 3.5 0 0 1-3.5 3.5H12a3.5 3.5 0 0 1-3.5-3.5V10.5A3.5 3.5 0 0 1 12 7z" fill="url(#xsy-blue)" filter="url(#xsy-shadow)"/>
<path d="M29 7v7h7" fill="#C4EAFF" stroke="#C4EAFF" stroke-width="1.2"/>
<path d="M15 19h14M15 25h10M15 31h7" stroke="#F5FCFF" stroke-width="2.2" stroke-linecap="round"/>
<circle cx="33.8" cy="33.7" r="8.3" fill="#DBFFF0" stroke="#22B77F" stroke-width="1.4"/>
<path d="M37.3 31.2a4 4 0 0 0-6.9-.5m-.3-2.7v3.2h3.1M30.4 36a4 4 0 0 0 6.8-.5m.3 2.7V35h-3.1" stroke="#12A975" stroke-width="1.6" fill="none" stroke-linecap="round" stroke-linejoin="round"/>
</g></symbol>
</svg>
